<svg width="28" height="22" viewBox="0 0 28 22" fill="none" xmlns="http://www.w3.org/2000/svg">
<path d="M27.1227 0.270169C27.0703 0.199321 27.0026 0.139285 26.9238 0.0938733C26.8449 0.048462 26.7567 0.0186676 26.6647 0.00638209C26.5727 -0.00590338 26.479 -0.000411486 26.3894 0.0225089C26.2999 0.0454293 26.2164 0.0852775 26.1445 0.139523C18.7859 5.72293 11.9871 12.428 9.68697 16.5609L3.73005 10.3374C3.49282 10.0896 3.15879 9.93852 2.80109 9.91735C2.4434 9.89619 2.09118 10.0066 1.82157 10.2245L0.462101 11.323C0.196631 11.5375 0.0323823 11.839 0.0042992 12.1635C-0.0237839 12.488 0.0865155 12.8098 0.31173 13.0605L7.95526 21.5667C8.07709 21.7022 8.22983 21.8114 8.40261 21.8863C8.57539 21.9612 8.76396 22 8.95487 22H10.8067C11.0449 21.9992 11.2783 21.9382 11.4815 21.8236C11.6848 21.7091 11.8502 21.5454 11.9597 21.3503C16.8261 12.7316 21.2101 7.85322 27.7894 2.09647C27.9052 1.99567 27.9784 1.86022 27.9959 1.71428C28.0134 1.56834 27.9742 1.42139 27.8852 1.29965L27.1227 0.270169Z" fill="#6610C1"/>
</svg>
